<svg xmlns="http://www.w3.org/2000/svg" width="428" height="394" viewBox="0 0 428 394">
<g>
<path d="M 238.00 327.68 C228.07,329.42 205.40,330.33 202.50,329.10 C201.40,328.63 197.57,327.94 194.00,327.55 C186.75,326.77 172.87,322.92 166.00,319.77 C163.52,318.64 159.93,316.99 158.00,316.11 C144.17,309.76 124.39,294.23 114.76,282.18 C99.44,263.00 93.39,250.52 86.33,223.50 C83.70,213.42 83.72,183.84 86.37,172.50 C90.82,153.44 96.13,140.65 105.39,126.67 C118.40,107.02 136.10,90.87 154.86,81.53 C176.59,70.71 193.02,66.83 216.74,66.92 C237.32,67.00 255.50,71.29 273.96,80.41 C282.77,84.77 296.98,94.08 296.99,95.51 C297.00,96.06 290.70,102.76 283.00,110.39 L 269.00 124.27 L 265.25 121.78 C258.84,117.52 252.21,114.00 250.60,114.00 C249.76,114.00 247.36,113.13 245.28,112.06 C234.79,106.66 206.27,105.49 192.00,109.86 C176.34,114.66 169.89,118.01 157.78,127.67 C151.12,132.99 139.63,146.30 137.95,150.65 C137.50,151.84 136.65,153.10 136.06,153.46 C135.48,153.82 135.00,154.94 135.00,155.94 C135.00,156.94 134.37,158.28 133.59,158.92 C130.49,161.50 125.34,181.61 124.27,195.35 C123.32,207.51 128.42,228.46 135.54,241.65 C155.33,278.30 199.35,297.32 239.00,286.37 C254.96,281.95 267.25,274.72 279.53,262.51 C289.14,252.95 295.51,243.46 299.87,232.20 C310.92,203.64 308.62,176.43 292.93,150.30 C290.22,145.79 288.00,141.73 288.00,141.28 C288.00,140.09 314.35,114.00 315.56,114.00 C317.24,114.00 328.54,129.58 331.09,135.43 C331.59,136.57 332.40,138.18 332.89,139.00 C336.75,145.50 341.09,157.28 344.14,169.50 C346.11,177.39 346.38,181.02 346.34,199.00 C346.31,214.82 345.95,220.53 344.76,224.00 C343.90,226.48 342.91,230.19 342.56,232.26 C342.20,234.33 340.06,240.63 337.80,246.26 C326.44,274.64 304.39,299.36 277.38,314.00 C275.25,315.16 272.83,316.51 272.00,317.00 C266.23,320.44 249.81,325.60 238.00,327.68 Z" fill="rgb(2,2,2)"/>
<path d="M 0.00 197.00 L 0.00 0.00 L 214.00 0.00 L 428.00 0.00 L 428.00 197.00 L 428.00 394.00 L 214.00 394.00 L 0.00 394.00 L 0.00 197.00 ZM 238.00 327.68 C249.81,325.60 266.23,320.44 272.00,317.00 C272.83,316.51 275.25,315.16 277.38,314.00 C304.39,299.36 326.44,274.64 337.80,246.26 C340.06,240.63 342.20,234.33 342.56,232.26 C342.91,230.19 343.90,226.48 344.76,224.00 C345.95,220.53 346.31,214.82 346.34,199.00 C346.38,181.02 346.11,177.39 344.14,169.50 C341.09,157.28 336.75,145.50 332.89,139.00 C332.40,138.18 331.59,136.57 331.09,135.43 C328.54,129.58 317.24,114.00 315.56,114.00 C314.35,114.00 288.00,140.09 288.00,141.28 C288.00,141.73 290.22,145.79 292.93,150.30 C308.62,176.43 310.92,203.64 299.87,232.20 C295.51,243.46 289.14,252.95 279.53,262.51 C267.25,274.72 254.96,281.95 239.00,286.37 C199.35,297.32 155.33,278.30 135.54,241.65 C128.42,228.46 123.32,207.51 124.27,195.35 C125.34,181.61 130.49,161.50 133.59,158.92 C134.37,158.28 135.00,156.94 135.00,155.94 C135.00,154.94 135.48,153.82 136.06,153.46 C136.65,153.10 137.50,151.84 137.95,150.65 C139.63,146.30 151.12,132.99 157.78,127.67 C169.89,118.01 176.34,114.66 192.00,109.86 C206.27,105.49 234.79,106.66 245.28,112.06 C247.36,113.13 249.76,114.00 250.60,114.00 C252.21,114.00 258.84,117.52 265.25,121.78 L 269.00 124.27 L 283.00 110.39 C290.70,102.76 297.00,96.06 296.99,95.51 C296.98,94.08 282.77,84.77 273.96,80.41 C255.50,71.29 237.32,67.00 216.74,66.92 C193.02,66.83 176.59,70.71 154.86,81.53 C136.10,90.87 118.40,107.02 105.39,126.67 C96.13,140.65 90.82,153.44 86.37,172.50 C83.72,183.84 83.70,213.42 86.33,223.50 C93.39,250.52 99.44,263.00 114.76,282.18 C124.39,294.23 144.17,309.76 158.00,316.11 C159.93,316.99 163.52,318.64 166.00,319.77 C172.87,322.92 186.75,326.77 194.00,327.55 C197.57,327.94 201.40,328.63 202.50,329.10 C205.40,330.33 228.07,329.42 238.00,327.68 Z" fill="rgb(246,246,241)"/>
</g>
</svg>