<svg xmlns="http://www.w3.org/2000/svg" width="464" height="376" viewBox="0 0 464 376">
<g>
<path d="M 307.42 275.39 C306.55,275.73 272.43,276.00 231.61,276.00 C173.66,276.00 157.07,275.73 155.94,274.75 C154.70,273.68 154.54,260.97 154.80,184.16 C155.07,104.42 155.26,94.89 156.63,95.41 C157.47,95.74 192.10,96.00 233.58,96.00 L 309.00 96.00 L 309.00 185.39 C309.00,265.99 308.84,274.85 307.42,275.39 ZM 143.00 186.06 L 143.00 276.00 L 130.54 276.00 C119.63,276.00 117.97,275.78 117.29,274.25 C116.85,273.29 116.63,232.81 116.79,184.31 L 117.07 96.12 L 129.29 95.81 C136.00,95.64 141.84,95.64 142.25,95.81 C142.66,95.98 143.00,136.59 143.00,186.06 Z" fill="rgb(1,1,1)"/>
<path d="M 143.00 186.06 C143.00,136.59 142.66,95.98 142.25,95.81 C142.02,95.71 140.07,95.67 137.22,95.68 C139.38,95.47 140.74,95.16 141.30,94.75 C142.73,93.68 143.01,91.02 143.24,76.00 L 143.50 58.50 L 244.63 58.25 L 345.76 57.99 L 346.37 60.25 C346.70,61.49 346.98,117.85 346.98,185.50 L 346.99 308.50 L 343.91 310.25 C342.22,311.21 340.20,312.00 339.42,312.00 C338.64,312.00 338.00,312.45 338.00,313.00 C338.00,314.40 147.15,314.32 144.75,312.92 C143.19,312.01 143.00,309.99 143.00,293.95 ZM 155.43 299.69 C155.84,300.76 172.12,301.00 243.72,300.98 C292.00,300.98 332.10,300.59 332.84,300.12 C333.94,299.42 334.20,279.25 334.34,185.69 C334.45,108.87 334.17,71.77 333.47,71.07 C332.36,69.96 157.76,69.41 155.97,70.52 C155.43,70.85 155.00,76.37 155.00,82.95 C155.00,92.82 155.26,94.89 156.58,95.39 C157.45,95.73 192.10,96.00 233.58,96.00 C192.10,96.00 157.47,95.74 156.63,95.41 C155.26,94.89 155.07,104.42 154.80,184.16 C154.54,260.97 154.70,273.68 155.94,274.75 C157.05,275.71 173.30,275.99 229.70,276.00 L 155.50 276.50 L 155.21 287.44 C155.06,293.45 155.16,298.96 155.43,299.69 ZM 307.58 275.28 C308.61,274.26 308.90,266.79 308.98,223.81 C308.94,254.06 308.85,275.14 308.75,275.23 C308.74,275.25 308.34,275.26 307.58,275.28 ZM 121.69 96.00 L 117.07 96.12 L 117.07 96.00 Z" fill="rgb(95,159,104)"/>
<path d="M 346.51 308.77 L 346.50 313.50 L 325.49 313.55 C333.35,313.40 338.00,313.22 338.00,313.00 C338.00,312.45 338.64,312.00 339.42,312.00 C340.20,312.00 342.22,311.21 343.91,310.25 ZM 346.49 61.25 C346.65,62.17 346.77,78.06 346.82,102.69 C346.72,79.71 346.58,64.12 346.42,60.86 ZM 161.97 313.54 C150.96,313.40 145.22,313.20 144.75,312.92 C144.28,312.65 143.93,312.27 143.68,311.44 C143.93,312.27 144.28,312.65 144.75,312.92 C145.18,313.17 151.64,313.38 161.97,313.54 ZM 346.19 59.59 L 345.76 57.99 L 345.91 57.99 Z" fill="rgb(113,163,122)"/>
<path d="M 0.00 188.00 L 0.00 0.00 L 232.00 0.00 L 464.00 0.00 L 464.00 188.00 L 464.00 376.00 L 232.00 376.00 L 0.00 376.00 L 0.00 188.00 ZM 346.78 189.00 C346.94,120.53 346.81,63.04 346.49,61.25 L 345.91 57.99 L 244.70 58.25 L 143.50 58.50 L 143.24 76.00 C143.01,91.02 142.73,93.68 141.30,94.75 C140.19,95.58 135.80,96.00 128.35,96.00 L 117.07 96.00 L 116.79 184.25 C116.63,232.79 116.85,273.29 117.29,274.25 C117.97,275.78 119.63,276.00 130.54,276.00 L 143.00 276.00 L 143.00 293.95 C143.00,309.99 143.19,312.01 144.75,312.92 C145.92,313.60 179.81,313.87 246.50,313.72 L 346.50 313.50 L 346.78 189.00 ZM 155.43 299.69 C155.16,298.96 155.06,293.45 155.21,287.44 L 155.50 276.50 L 232.00 275.98 C274.08,275.70 308.61,275.36 308.75,275.23 C308.89,275.11 309.00,234.73 309.00,185.50 L 309.00 96.00 L 233.58 96.00 C192.10,96.00 157.45,95.73 156.58,95.39 C155.26,94.89 155.00,92.82 155.00,82.95 C155.00,76.37 155.43,70.85 155.97,70.52 C157.76,69.41 332.36,69.96 333.47,71.07 C334.17,71.77 334.45,108.87 334.34,185.69 C334.20,279.25 333.94,299.42 332.84,300.12 C332.10,300.59 292.00,300.98 243.72,300.98 C172.12,301.00 155.84,300.76 155.43,299.69 Z" fill="rgb(244,244,238)"/>
</g>
</svg>