<svg xmlns="http://www.w3.org/2000/svg" width="346" height="382" viewBox="0 0 346 382">
<g>
<path d="M 206.00 305.00 L 206.00 311.00 L 149.67 311.00 C118.68,311.00 93.03,310.70 92.67,310.33 C91.82,309.49 91.78,241.85 92.62,235.73 C93.23,231.29 94.08,230.38 129.31,196.34 C149.15,177.18 169.90,157.24 175.44,152.02 C190.48,137.86 223.99,104.60 224.00,103.83 C224.00,103.46 221.47,97.84 218.38,91.33 C202.69,58.28 202.55,57.90 206.09,57.22 C208.64,56.73 211.78,58.50 225.71,68.25 C232.98,73.34 243.48,80.65 249.05,84.50 C254.62,88.35 261.39,93.23 264.09,95.34 L 269.00 99.17 L 269.00 143.67 L 237.25 174.52 C219.79,191.49 200.96,209.90 195.42,215.44 C189.87,220.97 167.26,243.04 145.17,264.48 C123.08,285.91 105.00,303.80 105.00,304.23 C105.00,304.65 127.72,305.00 155.50,305.00 ZM 99.00 235.15 L 99.00 299.23 L 103.25 295.49 C105.59,293.44 117.40,282.02 129.50,270.11 C141.60,258.20 165.68,234.76 183.00,218.01 C200.32,201.26 225.19,176.99 238.25,164.08 L 262.00 140.59 L 262.00 102.17 L 249.75 93.29 C238.04,84.81 225.58,76.18 220.49,73.03 C219.18,72.22 217.85,71.82 217.52,72.14 C217.20,72.47 218.75,76.37 220.97,80.81 C223.19,85.26 225.00,89.11 225.00,89.37 C225.00,89.64 226.59,93.29 228.53,97.49 L 232.05 105.12 L 230.13 107.81 C229.08,109.29 225.35,113.17 221.86,116.44 C218.36,119.70 206.94,130.73 196.47,140.94 C144.61,191.52 133.01,202.77 116.67,218.33 Z" fill="rgb(9,9,7)"/>
<path d="M 206.00 305.00 L 155.50 305.00 C127.72,305.00 105.00,304.65 105.00,304.23 C105.00,303.80 123.08,285.91 145.17,264.48 C148.64,261.11 152.12,257.73 155.55,254.40 C134.25,275.19 107.20,302.51 107.60,303.17 C107.89,303.64 130.23,303.90 157.24,303.76 L 206.35 303.50 L 209.53 295.38 C211.27,290.91 213.63,285.28 214.76,282.88 C218.49,274.95 223.00,264.18 223.00,263.19 C223.00,262.66 219.30,258.69 214.77,254.36 C210.25,250.04 201.83,241.92 196.07,236.33 L 185.59 226.16 L 175.55 235.30 C172.00,238.54 166.86,243.42 160.98,249.12 C177.16,233.37 191.21,219.64 195.42,215.44 C200.96,209.90 219.79,191.49 237.25,174.52 L 263.38 149.13 L 249.00 163.50 C238.00,174.49 229.00,183.77 229.00,184.12 C229.00,184.73 243.61,199.16 260.25,214.97 L 268.00 222.34 L 268.00 268.56 L 255.75 277.64 C227.89,298.30 210.81,310.19 207.75,311.07 C205.93,311.59 180.13,312.00 148.78,312.00 L 93.04 312.00 L 92.45 309.67 C92.27,308.95 92.15,302.94 92.12,294.13 C92.22,303.40 92.41,310.07 92.67,310.33 C93.03,310.70 118.68,311.00 149.67,311.00 L 206.00 311.00 ZM 217.00 295.40 C217.00,295.73 217.34,295.99 217.75,295.97 C218.58,295.94 252.34,271.74 258.25,266.94 L 262.00 263.89 L 262.00 226.62 L 242.77 207.90 L 223.54 189.19 L 221.02 191.03 C219.63,192.04 212.21,199.19 204.52,206.93 L 190.53 221.00 L 231.49 260.73 L 229.57 266.12 C228.51,269.08 226.60,273.59 225.32,276.15 C224.04,278.70 223.00,281.11 223.00,281.49 C223.00,282.35 220.35,288.51 218.41,292.15 C217.63,293.61 217.00,295.08 217.00,295.40 ZM 136.18 167.75 C142.02,173.39 147.18,177.98 147.65,177.95 C148.07,177.93 154.25,172.28 161.88,164.97 C152.87,173.62 140.93,185.11 129.31,196.34 C94.08,230.38 93.23,231.29 92.62,235.73 C92.56,236.20 92.50,237.01 92.45,238.12 L 92.50 231.91 L 101.00 223.70 C105.68,219.19 116.86,208.36 125.85,199.64 L 142.19 183.78 L 129.85 171.63 C123.06,164.94 111.76,153.92 104.74,147.12 L 91.98 134.77 L 92.50 56.50 L 150.00 56.50 C183.60,56.50 199.75,56.67 206.36,57.18 C206.27,57.19 206.18,57.20 206.09,57.22 C203.27,57.76 202.78,58.12 210.67,75.02 C209.32,72.14 208.20,69.75 207.56,68.35 L 204.74 62.21 L 155.42 62.39 C128.29,62.49 105.85,62.81 105.55,63.11 C105.10,63.57 144.18,102.22 176.50,133.29 C180.90,137.52 184.74,140.98 185.03,140.99 C185.32,140.99 188.46,138.07 192.00,134.50 C195.54,130.93 198.83,128.00 199.29,128.00 C199.74,128.00 204.21,123.88 209.23,119.05 C198.32,129.94 183.93,144.03 175.44,152.02 C173.30,154.04 168.89,158.25 163.13,163.77 C163.57,163.35 164.01,162.93 164.45,162.50 L 180.40 147.11 L 148.95 116.30 C131.65,99.36 113.34,81.48 108.25,76.57 L 99.00 67.64 L 99.00 131.68 L 112.29 144.59 C119.60,151.69 130.35,162.11 136.18,167.75 ZM 206.43 162.54 L 222.37 178.05 L 225.98 174.52 C227.96,172.59 230.01,171.00 230.53,171.00 C230.86,171.00 233.82,168.32 238.05,164.27 C224.94,177.24 200.24,201.35 183.00,218.01 C181.63,219.33 180.22,220.70 178.78,222.09 C186.23,214.85 194.29,206.98 200.25,201.14 L 218.00 183.73 L 202.25 168.40 C193.59,159.97 186.05,153.05 185.50,153.04 C184.67,153.01 182.78,154.46 175.86,161.03 C181.94,155.10 188.76,148.46 196.47,140.94 C201.44,136.09 206.63,131.05 211.08,126.75 C210.74,127.09 210.40,127.43 210.05,127.77 L 190.50 147.04 ZM 208.26 57.36 C209.15,57.48 209.71,57.61 210.00,57.75 C210.79,58.15 213.47,59.88 216.98,62.25 C212.48,59.25 209.99,57.86 208.26,57.36 ZM 254.92 147.59 L 262.00 140.52 L 262.00 140.59 ZM 142.14 257.72 C150.61,249.44 159.34,240.93 165.22,235.24 C157.26,242.98 149.15,250.87 142.14,257.72 ZM 231.08 106.49 C231.01,106.61 230.93,106.73 230.84,106.85 C230.81,106.89 230.75,106.96 230.68,107.04 ZM 223.25 101.91 C223.67,102.89 223.93,103.54 223.99,103.77 C223.92,103.53 223.66,102.88 223.25,101.91 Z" fill="rgb(157,158,154)"/>
<path d="M 0.00 191.00 L 0.00 0.00 L 173.00 0.00 L 346.00 0.00 L 346.00 191.00 L 346.00 382.00 L 173.00 382.00 L 0.00 382.00 L 0.00 191.00 ZM 207.75 311.07 C210.81,310.19 227.89,298.30 255.75,277.64 L 268.00 268.56 L 268.00 245.45 L 268.00 222.34 L 260.25 214.97 C243.61,199.16 229.00,184.73 229.00,184.12 C229.00,183.77 238.00,174.49 249.00,163.50 L 269.00 143.52 L 269.00 121.34 L 269.00 99.17 L 264.09 95.34 C261.39,93.23 254.62,88.35 249.05,84.50 C243.48,80.65 232.98,73.34 225.71,68.25 C218.44,63.16 211.38,58.44 210.00,57.75 C208.09,56.79 194.01,56.50 150.00,56.50 L 92.50 56.50 L 92.24 95.64 L 91.98 134.77 L 104.74 147.12 C111.76,153.92 123.06,164.94 129.85,171.63 L 142.19 183.78 L 125.85 199.64 C116.86,208.36 105.68,219.19 101.00,223.70 L 92.50 231.91 L 92.18 269.62 C92.01,290.36 92.13,308.38 92.45,309.67 L 93.04 312.00 L 148.78 312.00 C180.13,312.00 205.93,311.59 207.75,311.07 ZM 107.60 303.17 C107.04,302.26 158.85,250.50 175.55,235.30 L 185.59 226.16 L 196.07 236.33 C201.83,241.92 210.25,250.04 214.77,254.36 C219.30,258.69 223.00,262.66 223.00,263.19 C223.00,264.18 218.49,274.95 214.76,282.88 C213.63,285.28 211.27,290.91 209.53,295.38 L 206.35 303.50 L 157.24 303.76 C130.23,303.90 107.89,303.64 107.60,303.17 ZM 99.00 267.19 L 99.00 235.15 L 116.67 218.33 C126.39,209.07 143.83,192.22 155.42,180.87 C179.92,156.90 184.14,153.00 185.50,153.04 C186.05,153.05 193.59,159.97 202.25,168.40 L 218.00 183.73 L 200.25 201.14 C190.49,210.71 175.07,225.72 166.00,234.49 C156.93,243.26 140.05,259.74 128.50,271.11 C116.95,282.47 105.59,293.45 103.25,295.50 L 99.00 299.23 L 99.00 267.19 ZM 217.00 295.40 C217.00,295.08 217.63,293.61 218.41,292.15 C220.35,288.51 223.00,282.35 223.00,281.49 C223.00,281.11 224.04,278.70 225.32,276.15 C226.60,273.59 228.51,269.08 229.57,266.12 L 231.49 260.73 L 211.01 240.86 L 190.53 221.00 L 204.52 206.93 C212.21,199.19 219.63,192.04 221.02,191.03 L 223.54 189.19 L 242.77 207.90 L 262.00 226.62 L 262.00 245.25 L 262.00 263.89 L 258.25 266.94 C252.34,271.74 218.58,295.94 217.75,295.97 C217.34,295.99 217.00,295.73 217.00,295.40 ZM 136.18 167.75 C130.35,162.11 119.60,151.69 112.29,144.59 L 99.00 131.68 L 99.00 99.66 L 99.00 67.64 L 108.25 76.57 C113.34,81.48 131.65,99.36 148.95,116.30 L 180.40 147.11 L 164.45 162.50 C155.68,170.97 148.12,177.92 147.65,177.95 C147.18,177.98 142.02,173.39 136.18,167.75 ZM 206.43 162.54 L 190.50 147.04 L 210.05 127.77 C220.80,117.17 230.16,107.76 230.84,106.85 C231.87,105.47 231.48,103.88 228.54,97.52 C226.59,93.31 225.00,89.64 225.00,89.37 C225.00,89.11 223.19,85.26 220.97,80.81 C218.75,76.37 217.20,72.47 217.52,72.14 C217.85,71.82 219.18,72.22 220.49,73.03 C225.58,76.18 238.04,84.81 249.75,93.29 L 262.00 102.17 L 262.00 121.35 L 262.00 140.52 L 246.74 155.76 C238.34,164.14 231.05,171.00 230.53,171.00 C230.01,171.00 227.96,172.59 225.98,174.52 L 222.37 178.05 L 206.43 162.54 ZM 176.50 133.29 C144.18,102.22 105.10,63.57 105.55,63.11 C105.85,62.81 128.29,62.49 155.42,62.39 L 204.74 62.21 L 207.56 68.35 C209.11,71.73 213.45,80.93 217.19,88.79 C220.94,96.65 224.00,103.42 224.00,103.84 C224.00,104.89 200.36,128.00 199.29,128.00 C198.83,128.00 195.54,130.93 192.00,134.50 C188.46,138.07 185.32,140.99 185.03,140.99 C184.74,140.98 180.90,137.52 176.50,133.29 Z" fill="rgb(243,242,237)"/>
</g>
</svg>